<?xml version="1.0" encoding="utf-8"?>
<!-- Generator: Adobe Illustrator 17.0.0, SVG Export Plug-In . SVG Version: 6.00 Build 0)  -->
<!DOCTYPE svg PUBLIC "-//W3C//DTD SVG 1.1//EN" "http://www.w3.org/Graphics/SVG/1.1/DTD/svg11.dtd">
<svg version="1.1" id="Capa_1" xmlns="http://www.w3.org/2000/svg" xmlns:xlink="http://www.w3.org/1999/xlink" x="0px" y="0px"
	 width="24px" height="24px" viewBox="0 0 24 24" enable-background="new 0 0 24 24" xml:space="preserve">
<path fill="#FFFFFF" d="M13,10h-3v3H8v-3H5V8h3V5h2v3h3V10z M21.172,24l-7.387-7.387C12.397,17.487,10.761,18,9,18
	c-4.971,0-9-4.029-9-9s4.029-9,9-9s9,4.029,9,9c0,1.761-0.514,3.398-1.387,4.785L24,21.172C24,21.172,21.172,24,21.172,24z M9,16
	c3.859,0,7-3.14,7-7s-3.141-7-7-7S2,5.14,2,9S5.141,16,9,16z"/>
</svg>
